<svg width="4510" height="1751" viewBox="0 0 4510 1751" fill="none" xmlns="http://www.w3.org/2000/svg">
<rect x="0.0683594" y="0.703125" width="4509.34" height="1750" rx="445.647" fill="#FFF7EC"/>
<path d="M1605.84 978.635C1636.99 1004.24 1674.05 1017.22 1717.02 1017.58C1767.87 1016.86 1793.65 998.687 1794.37 963.059C1794.73 933.876 1777.72 916.33 1743.34 910.422C1727.59 908.273 1710.31 905.856 1691.51 903.171C1657.85 897.621 1632.25 885.178 1614.7 865.842C1596.62 845.969 1587.58 821.799 1587.58 793.332C1587.58 759.136 1598.95 731.564 1621.69 710.617C1643.71 689.849 1674.95 679.286 1715.41 678.928C1764.11 680.002 1806.45 693.519 1842.44 719.479L1809.41 768.356C1780.04 749.021 1747.73 738.994 1712.46 738.278C1694.2 738.278 1678.98 742.844 1666.8 751.975C1654.09 761.464 1647.56 775.607 1647.2 794.406C1647.2 805.686 1651.59 815.891 1660.36 825.021C1669.13 834.331 1683.19 840.777 1702.52 844.357C1713.26 846.148 1727.94 848.207 1746.56 850.534C1783.27 855.547 1810.39 868.706 1827.94 890.012C1845.3 910.959 1853.99 935.308 1853.99 963.059C1852.02 1037.9 1806.18 1075.85 1716.49 1076.93C1658.48 1076.93 1608.62 1059.02 1566.9 1023.21L1605.84 978.635ZM1979.4 1073.7L1881.65 682.15H1944.22L2005.72 960.373H2006.79L2082.79 682.15H2125.76L2201.5 960.373H2202.57L2264.34 682.15H2326.91L2229.16 1073.7H2179.47L2104.82 791.452H2103.74L2028.82 1073.7H1979.4ZM2374.45 1073.7V682.15H2624.47V738.278H2433.8V849.997H2596.54V902.634H2433.8V1017.58H2624.47V1073.7H2374.45ZM2668.51 949.362V893.234H2833.94V949.362H2668.51ZM2899.47 1073.7V682.15H2955.6V824.484C2965.8 814.637 2976.99 806.581 2989.17 800.314C3000.45 794.406 3013.25 791.452 3027.57 791.452C3061.77 792.347 3086.74 804.522 3102.5 827.976C3110.2 836.748 3115.48 848.296 3118.34 862.619C3121.03 876.763 3122.37 900.575 3122.37 934.055C3122.37 966.997 3121.03 990.63 3118.34 1004.95C3115.48 1019.99 3110.2 1031.9 3102.5 1040.67C3094.8 1051.41 3084.68 1060.01 3072.15 1066.45C3059.8 1073.08 3044.94 1076.57 3027.57 1076.93C2998.21 1076.21 2974.22 1065.38 2955.6 1044.43V1073.7H2899.47ZM3010.65 847.58C2998.12 847.58 2988.18 850.176 2980.84 855.368C2973.14 860.56 2967.5 867.364 2963.92 875.778C2960.52 884.193 2958.28 893.324 2957.21 903.171C2956.13 913.018 2955.6 923.312 2955.6 934.055C2955.6 943.902 2956.13 953.928 2957.21 964.133C2958.28 974.517 2960.52 983.916 2963.92 992.331C2967.5 1000.75 2973.14 1007.55 2980.84 1012.74C2988.18 1018.11 2998.12 1020.8 3010.65 1020.8C3023.9 1020.8 3034.37 1018.29 3042.07 1013.28C3049.77 1008.09 3055.23 1001.46 3058.45 993.405C3062.03 984.991 3064.45 975.502 3065.71 964.938C3066.06 954.912 3066.24 944.618 3066.24 934.055C3066.24 922.954 3066.06 912.123 3065.71 901.56C3064.45 891.713 3062.03 882.582 3058.45 874.167C3055.23 865.752 3049.77 859.128 3042.07 854.294C3034.37 849.818 3023.9 847.58 3010.65 847.58ZM3401.4 955.539H3227.64C3227.64 977.919 3234.09 994.927 3246.98 1006.56C3258.97 1018.38 3274.73 1024.29 3294.25 1024.29C3316.98 1024.29 3337.3 1015.25 3355.21 997.165L3395.76 1031.81C3367.29 1062.24 3333.81 1077.28 3295.32 1076.93C3280.64 1076.93 3266.32 1074.78 3252.35 1070.48C3245.37 1068.15 3238.56 1065.02 3231.94 1061.08C3224.96 1057.68 3218.42 1053.47 3212.34 1048.46C3200.52 1038.07 3190.94 1023.57 3183.6 1004.95C3175.54 987.049 3171.52 963.775 3171.52 935.129C3171.52 907.557 3175.01 884.641 3181.99 866.379C3188.97 847.759 3197.92 833.078 3208.84 822.336C3219.94 811.415 3232.39 803.537 3246.17 798.703C3259.78 793.869 3273.21 791.452 3286.46 791.452C3318.33 791.81 3345.27 802.284 3367.29 822.873C3389.67 843.82 3401.04 872.645 3401.4 909.348V955.539ZM3227.64 909.348H3345.27C3344.55 887.684 3338.74 871.302 3327.81 860.202C3317.07 849.639 3303.29 844.357 3286.46 844.357C3269.63 844.357 3255.84 849.639 3245.1 860.202C3234.54 871.302 3228.72 887.684 3227.64 909.348ZM3460.21 1073.7V794.943H3516.34V824.484H3517.41C3535.85 802.463 3560.02 791.452 3589.92 791.452C3613.02 791.452 3634.15 799.598 3653.3 815.891C3672.28 832.362 3682.22 856.532 3683.11 888.4V1073.7H3626.98V907.736C3626.98 888.221 3621.79 873.361 3611.41 863.156C3601.2 852.772 3588.04 847.58 3571.93 847.58C3555.82 847.58 3542.57 852.772 3532.18 863.156C3521.62 873.361 3516.34 888.221 3516.34 907.736V1073.7H3460.21ZM3919.44 991.794L3960.8 1028.59C3948.62 1042.55 3934.3 1053.92 3917.83 1062.69C3901.36 1071.82 3882.29 1076.57 3860.63 1076.93C3827.68 1076.93 3798.77 1065.74 3773.88 1043.36C3748.1 1020.98 3734.85 984.722 3734.14 934.592C3734.85 883.924 3748.1 847.222 3773.88 824.484C3798.77 802.105 3827.68 791.094 3860.63 791.452C3882.29 791.81 3901.36 796.286 3917.83 804.88C3934.3 813.653 3948.62 825.38 3960.8 840.061L3919.44 876.853C3905.3 858.054 3886.41 848.296 3862.78 847.58C3815.15 846.864 3790.98 875.868 3790.27 934.592C3790.98 992.958 3815.15 1021.69 3862.78 1020.8C3886.41 1020.44 3905.3 1010.77 3919.44 991.794ZM4000.01 1073.7V682.15H4056.13V824.484H4057.21C4075.65 802.463 4099.82 791.452 4129.72 791.452C4152.81 791.452 4173.94 799.598 4193.1 815.891C4212.08 832.362 4222.01 856.532 4222.91 888.4V1073.7H4166.78V907.736C4166.78 888.221 4161.59 873.361 4151.2 863.156C4141 852.772 4127.84 847.58 4111.73 847.58C4095.61 847.58 4082.36 852.772 4071.98 863.156C4061.42 873.361 4056.13 888.221 4056.13 907.736V1073.7H4000.01Z" fill="#1697E2"/>
<path d="M529.943 612.778C528.1 621.817 525.474 630.821 523.647 640.594C507.822 635.791 491.453 630.237 480.124 616.99C469.683 604.781 463.353 591.07 463.353 574.901C463.353 574.206 463.875 570.33 464.251 568.569C464.694 565.466 465.694 564.878 468.751 564.184C472.185 564.184 473.029 566.237 473.247 569.664C478.794 584.95 484.049 591.181 500.247 603.779C500.247 603.779 521.881 602.648 530.836 604.679L529.943 612.778Z" fill="#EA9F8F"/>
<path d="M1063.59 490.391C1084.41 490.266 1104.69 494.453 1123.1 504.378C1126.92 506.44 1130.11 509.602 1133.78 513.789C1135.42 526.652 1136.83 540.615 1136.65 553.529C1136.42 570.376 1118.25 579.986 1104.95 587.663C1073.5 605.806 1049.19 645.67 1050.99 665.954C1057.29 685.657 1071.37 682.711 1095.08 690.252L1117.58 701.051C1124.81 711.306 1134.68 734.347 1134.68 745.146C1135.77 766.48 1125.16 775.121 1105.56 784.578C1089.05 792.544 1071.99 794.89 1054.42 796.755C1048.3 797.404 1043.41 799.904 1043.51 807.792C1047.44 816.977 1057.28 830.41 1057.8 840.542C1058.85 860.592 1059.54 880.679 1059.62 900.756C1059.69 917.941 1058.73 935.129 1058.29 952.318C1057.66 977.427 1056.9 1002.53 1056.59 1027.65C1056.49 1035.96 1058.12 1044.29 1058.08 1052.6C1057.89 1094.95 1060.02 1137.21 1059.95 1179.51C1059.92 1198.77 1058.69 1218.02 1058.36 1237.28C1058.06 1254.51 1058.33 1272.66 1057.42 1289.85C1056.54 1306.51 1056.34 1322.31 1054.27 1339C1051.77 1359.18 1041.99 1373.28 1029.6 1386.22C1015.01 1405.24 992.094 1411.02 970.932 1417.96C962.899 1420.59 955.777 1425.33 947.606 1426.21C930.85 1428.01 913.221 1427.17 896.411 1428.64C876.62 1430.37 850.534 1429.47 830.8 1426.6C811.45 1423.78 791.558 1420.41 772.198 1417.67C760.01 1415.94 748.546 1414.6 737.302 1408.76C719.341 1399.44 700.452 1392.71 680.226 1388.5C678.922 1376.15 678.217 1363.73 675.726 1352.5C673.038 1340.38 665.84 1330.05 653.369 1326.63C645.887 1324.57 637.635 1326.14 629.831 1325.5C635.323 1318.08 640.141 1310.9 646.029 1303.91C654.171 1300.12 662.418 1294.39 670.327 1292.21C698.512 1284.42 726.257 1286.35 754.013 1297.61C760.161 1300.1 766.621 1299.07 770.211 1291.31C772.202 1287 777.032 1284.46 781.01 1281.41C809.37 1259.67 839.098 1256.99 872.8 1264.31C885.99 1270.57 899.726 1274.81 913.445 1280.48C923.869 1284.78 934.283 1290.48 944.44 1295.17C947.363 1296.52 952.033 1295.07 955.594 1295.04C950.171 1282.68 937.579 1276.87 925.894 1270.63C915.194 1264.92 905.185 1260.75 894.398 1255.31C899.143 1251.11 903.13 1247.27 907.606 1242.79C908.07 1242.33 947.893 1209.06 966.815 1192.04C972.048 1187.33 976.58 1175.29 982.594 1172.52L988.888 1164.42C994.861 1158.13 1000.59 1147.4 1000.59 1147.4C1000.59 1147.4 1007.66 1140.49 1007.79 1139.3C1008.69 1134.8 1009.96 1126.85 1007.33 1124.18C1003.62 1120.42 996.341 1118.08 990.925 1118.61C983.252 1119.36 975.537 1126.11 968.46 1125.25C952.44 1123.28 938.752 1130.53 924.515 1134.14C897.233 1141.06 870.202 1137.31 843.345 1135.4C824.872 1134.09 801.215 1126.62 788.617 1121.22C788.944 1117.39 788.292 1114.21 789.109 1110.49C788.257 1094.64 789.608 1079.5 786.355 1064.65C783.263 1050.53 775.441 1038.58 759.417 1033.93C761.059 1031.07 763.499 1027.77 765.711 1026.73C775.955 1021.93 785.06 1015.67 795.925 1013.12C841.504 1002.45 887.427 996.079 934.175 1006.52C937.693 1007.31 942.212 1003.61 946.265 1002C943.625 999.323 941.325 994.847 938.287 994.271C923.408 991.453 908.312 987.79 893.332 987.957C869.24 988.226 845.008 990.071 821.154 993.483C798.426 996.733 775.991 1002.8 756.628 1016.1C748.666 1021.57 740.236 1027.34 737.725 1038.54C734.341 1040.42 731.336 1041.76 728.419 1043.26C716.771 1049.27 707.003 1056.8 701.528 1070.01C694.506 1083.79 694.731 1097.04 701.19 1110.32C711.156 1130.82 727.99 1142.62 749.084 1149.41C752.323 1150.46 755.278 1152.38 758.209 1154.57C761.21 1159.73 763.777 1164.84 767.696 1168.5C771.29 1171.87 776.302 1173.75 780.76 1176.15C789.84 1181.03 798.967 1185.83 807.422 1190.71C793.489 1190.51 779.809 1190.16 765.711 1189.62C745.489 1188.77 727.031 1188.07 707.218 1186.92C703.269 1172.26 699.287 1158.03 696.424 1143.72C681.311 1082.5 670.327 1021.34 659.528 959.242C657.896 951.158 655.543 943.526 653.228 934.945C645.419 919.177 632.709 910.51 616.116 910.173C585.341 909.549 554.436 910.611 523.642 909.747C522.45 901.118 521.227 892.361 520.042 884.55C520.587 871.187 519.918 857.063 522.288 843.853C526.143 832.157 528.698 821.443 532.641 810.758C532.641 810.758 534.983 802.846 530.839 800.777C507.329 789.035 475.033 780.713 473.245 749.482C472.761 741.029 472.079 732.844 471.447 724.399C478.98 709.523 491.715 700.403 506.488 694.184C523.026 687.222 523.126 687.645 523.16 670.679C523.178 661.525 523.517 652.371 523.709 641.704C525.549 631.152 527.371 621.834 529.943 612.778L530.836 604.679C527.167 604.054 513.746 609.179 500.247 603.779C477.75 588.481 474.15 574.083 473.247 569.664C472.347 566.065 472.32 564.637 468.751 564.184C465.694 564.878 464.694 565.466 464.251 568.569C463.29 565.083 470.316 546.087 473.247 538.986C478.826 525.475 489.645 516.697 500.951 508.46C519.663 494.827 541.366 489.799 565.854 488.484C563.46 483.297 561.342 479.299 559.724 475.107C544.754 436.306 532.697 396.844 526.851 355.378C522.102 321.696 521.992 288.619 531.233 255.926C537.519 233.686 549.03 215.683 571.563 205.121C591.887 195.596 617.949 204.422 629.612 224.726C635.853 235.592 638.064 248.858 641.53 261.815C640.201 263.364 638.787 263.572 638.791 264.197C638.907 282.695 638.392 301.239 639.567 319.674C640.586 335.676 643.352 351.583 645.764 367.469C646.377 371.509 651.429 380.603 651.429 380.603C651.429 380.603 661.3 373.037 665.827 369.804C676.06 367.34 686.721 364.544 697.049 362.584C703.355 361.387 710.118 361.92 718.022 361.705C723.892 362.981 728.105 363.626 732.642 365.305C742.549 371.471 750.421 376.103 754.921 363.505C756.72 347.306 737.415 336.845 727.018 324.727C715.029 310.753 718.685 293.667 716.201 277.848C724.435 262.739 738.519 257.207 754.366 254.868C786.381 250.142 813.155 263.558 839.054 279.755C865.704 296.422 888.473 317.028 905.024 344.12C910.186 352.571 916.234 360.48 922.673 369.788C922.673 350.904 923.259 333.848 922.538 316.848C921.4 289.996 918.455 262.959 927.027 236.881C938.764 201.174 982.52 188.953 1010.81 213.649C1034.3 234.156 1045.34 266.374 1051.89 296.012C1050.58 297.766 1048.97 298.353 1048.96 299.278C1048.78 317.618 1048.91 335.962 1048.62 354.299C1048.43 366.525 1047.7 378.742 1047.22 390.964C1046.65 405.46 1046.58 419.996 1045.41 434.444C1044.02 451.654 1041.58 468.777 1039.97 485.974C1039.79 487.915 1042.64 492.112 1043.79 492.11C1050.5 492.098 1056.87 490.999 1063.59 490.391ZM601.034 337.407C597.865 328.352 592.031 315.369 581.225 314.285C566.182 312.777 561.436 339.126 561.436 339.126C563.071 352.66 563.436 368.814 567.144 381.995C573.018 402.874 578.9 423.75 584.931 444.583C586.919 451.449 590.995 451.945 596.232 447.633C599.671 444.803 602.953 441.695 606.706 439.355C612.357 435.831 620.589 421.151 619.03 414.717C614.624 396.542 609.323 380.419 604.634 360.805C603.4 353.497 602.293 346.069 601.034 337.407ZM1005.99 337.407C1003.64 324.832 998.742 317.291 987.091 314.828C978.811 313.078 971.673 317.605 968.265 324.098C965.678 329.026 965.971 333.636 964.593 340.925C965.146 350.024 965.916 358.935 966.393 369.722C966.416 386.737 965.983 405.601 965.874 422.615C965.838 428.213 967.375 432.084 973.027 434.582C981.908 438.506 990.977 443.532 999.678 447.875C1001.93 449 1004.42 449.666 1006.8 450.544C1014.39 428.976 1008.69 401.301 1009.59 377.003C1008.5 364.474 1007.13 351.404 1005.99 337.407Z" fill="#FFD8AF"/>
<path d="M305.037 1226.7C301.662 1212.58 297.905 1198.54 294.989 1184.32C287.803 1149.29 280.967 1114.18 274.059 1079.09C265.987 1038.08 257.519 997.144 250.365 955.979C248.985 948.041 252.756 939.288 255.468 930.363C265.05 929.239 273.49 927.968 281.817 927.958C384.7 927.834 487.582 927.962 590.464 927.746C600.366 927.726 608.61 930.554 615.956 936.816C621.544 941.579 627.498 945.655 633.43 951.061C648.653 1034.84 659.954 1119.71 681.374 1202.22C681.306 1225.39 672.921 1233.76 650.475 1233.85C648.375 1233.85 646.276 1233.84 644.176 1233.84C571.486 1233.85 498.795 1233.87 426.104 1233.88C394.824 1233.88 363.543 1233.8 332.263 1233.93C324.908 1233.96 318.018 1233.73 312.319 1227.92C310.926 1226.5 307.518 1227.05 305.037 1226.7ZM425.781 1082.85C425.522 1098.11 432.125 1110.5 442.394 1121.09C447.596 1126.45 454.22 1130.38 461.717 1126.58C467.944 1123.42 473.122 1123.31 479.498 1126.1C487.723 1129.69 494.891 1126.5 499.682 1119.25C503.689 1113.18 509.602 1106.15 504.239 1099.02C495.873 1087.9 492.264 1077.63 503.142 1066.69C492.933 1054.85 481.902 1052.34 468.417 1057.79C465.61 1058.92 461.828 1059.57 459.097 1058.66C439.303 1052 426.411 1060.57 425.781 1082.85ZM460.336 1052.12C463.629 1051.27 467.303 1051.07 470.145 1049.43C478.573 1044.57 480.979 1037.87 478.801 1027.6C463.819 1026.49 456.152 1042.93 460.336 1052.12Z" fill="#A8A3A7"/>
<path d="M349.958 897.067C350.05 896.616 350.487 896.208 351.384 895.169C357.997 887.193 363.381 880.271 369.756 872.769C384.875 859.914 401.313 849.318 420.144 844.038C437.544 839.158 455.737 839.822 473.245 843.073L474.145 843.973C475.929 848.245 476.492 852.31 478.545 855.232C491.391 873.52 504.217 891.495 516.44 909.665C461.601 909.672 407.568 910.46 353.558 909.747C352.345 905.319 351.163 900.809 349.958 897.067Z" fill="#FFD8AF"/>
<path d="M353.558 909.747C407.561 909.774 460.907 909.634 516.44 909.665C519.354 909.64 522.259 909.777 523.642 909.747C554.428 909.794 584.734 909.386 615.509 910.01C632.102 910.347 646.037 918.99 653.228 934.945C646.351 941.122 639.698 945.704 633.43 951.061C627.843 946.296 621.544 941.579 615.956 936.816C608.61 930.554 600.366 927.726 590.464 927.746C487.582 927.962 384.7 927.834 281.817 927.958C273.49 927.968 264.57 929.681 255.468 930.363C261.142 915.307 275.286 910.959 289.472 910.102C306.674 909.063 324.778 909.761 343.664 909.747C348.434 909.748 350.41 909.776 353.558 909.747Z" fill="#BEB2BD"/>
<path d="M473.245 843.073C455.991 840.376 437.544 839.158 420.144 844.038C401.313 849.318 385.558 860.151 369.756 872.769C357.234 862.445 356.786 847.383 353.864 834.009C353.332 831.572 352.019 829.174 350.858 826.874C360.45 799.197 385.938 785.746 415.304 795.203C439.903 803.124 460.357 819.325 473.245 843.073Z" fill="#6A4C50"/>
<path d="M1063.59 490.391C1063.59 490.391 1050.5 492.098 1043.79 492.11C1042.64 492.112 1039.79 487.915 1039.97 485.974C1041.58 468.777 1044.02 451.654 1045.41 434.444C1046.58 419.996 1046.65 405.46 1047.22 390.964C1047.7 378.742 1048.43 366.525 1048.62 354.299C1048.91 335.962 1048.78 317.618 1048.96 299.278C1048.97 298.353 1050.64 297.053 1051.89 296.012C1065.06 339.008 1067.96 383.546 1066.48 428.177C1065.81 448.392 1064.61 469.416 1063.59 490.391Z" fill="#EA9F8F"/>
<path d="M665.827 369.804C661.413 373.788 651.429 380.603 651.429 380.603C651.429 380.603 646.377 371.509 645.764 367.469C643.352 351.583 640.586 335.676 639.567 319.674C638.392 301.239 638.907 282.695 638.791 264.197C638.787 263.572 640.238 262.63 641.53 261.815C647.595 285.722 652.636 310.121 657.994 334.215C660.51 345.532 663.215 357.733 665.827 369.804Z" fill="#EA9F8F"/>
<path d="M732.417 365.223C728.003 364.189 723.072 363.006 718.022 361.705C706.048 343.798 697.735 323.698 703.621 301.33C707.246 304.768 711.86 309.591 712.835 314.075C716.249 329.771 724.675 341.583 737.117 351.282C741.587 354.767 749.28 355.534 749.28 364.497C749.28 371.306 738.153 365.223 732.417 365.223Z" fill="#EA9F8F"/>
<path d="M523.642 909.747L516.44 909.665C502.687 891.49 491.391 873.52 478.545 855.232C476.492 852.31 475.393 848.126 474.145 843.973C484.611 840.213 489.544 849.09 494.84 854.708C503.43 863.82 511.743 874.351 520.042 884.55C521.543 892.874 522.45 901.118 523.642 909.747Z" fill="#EA9F8F"/>
<path d="M350.858 826.874C352.415 828.676 353.334 831.573 353.866 834.01C356.788 847.384 357.802 862.331 369.756 872.769C364.631 880.395 357.746 887.835 351.384 895.169C342.391 873.155 342.481 849.679 350.858 826.874Z" fill="#542F3F"/>
<path d="M732.419 365.223C738.032 364.578 749.28 371.487 749.28 364.497C749.28 355.534 741.587 354.767 737.117 351.282C724.675 341.583 716.249 329.771 712.835 314.075C711.86 309.591 707.061 305.489 703.621 301.33C701.146 295.033 713.223 282.612 716.219 277.932C719.242 293.423 722.519 317.528 727.018 324.727C737.415 336.845 756.742 347.112 754.921 363.505C750.421 376.103 742.326 371.389 732.419 365.223Z" fill="#FDC5A6"/>
<path fill-rule="evenodd" clip-rule="evenodd" d="M414.003 1276.26C424.774 1271.8 435.64 1271.65 446.479 1271.51C454.23 1271.41 461.966 1271.31 469.645 1269.63C472.818 1268.93 475.725 1267.39 478.644 1266.03C478.65 1263.41 472.014 1261.61 470.224 1260.72C464.693 1260.63 433.725 1260.64 433.725 1260.64C428.014 1263.22 422.421 1265.71 416.364 1267.34C406.822 1269.91 397.684 1272.37 392.254 1282.23C372.804 1284.31 354.1 1289.75 338.478 1300.36C325.51 1309.17 312.863 1319.34 313.062 1337.12C317.883 1334.86 323.248 1332.1 327.46 1329.92C330.9 1325.4 332.572 1319.44 337.015 1316.38C355.936 1303.32 378.256 1295.62 401.253 1291.23C403.058 1286.81 404.712 1280.11 414.003 1276.26Z" fill="#EA9F8F"/>
<path fill-rule="evenodd" clip-rule="evenodd" d="M463.182 754.54C462.276 752.677 460.553 751.258 458.847 750.382C458.154 759.122 457.963 768.118 457.095 776.821C456.148 782.348 458.212 789.181 459.747 794.478C470.964 823.115 493.605 838.432 522.288 843.853C524.624 837.09 527.023 829.629 528.944 823.039C530.156 818.882 531.359 814.843 532.641 810.758C528.655 808.604 523.343 805.795 520.042 809.858C508.406 807.293 495.74 802.696 490.481 798.861C485.424 795.174 483.117 794.524 479.938 788.203C479.938 788.203 466.862 762.112 463.182 754.54Z" fill="#EA9F8F"/>
<path d="M353.558 909.747C353.558 909.747 347.606 909.764 343.664 909.747C344.967 905.697 347.306 901.362 349.958 897.067C351.716 900.518 352.345 905.319 353.558 909.747Z" fill="#EA9F8F"/>
<path fill-rule="evenodd" clip-rule="evenodd" d="M760.32 606.479C726.658 601.16 661.592 581.853 634.063 544.385C634.063 544.385 621.19 554.284 615.187 557.047C603.192 565.083 599.289 569.415 593.614 576.875C585.47 584.571 581.076 591.644 577.095 601.979C574.262 609.332 572.168 619.45 572.42 627.349C572.42 627.349 572.25 648.633 572.251 654.337V654.34C572.251 654.34 572.045 694.303 572.044 704.041C572.044 709.502 572.007 714.964 571.97 720.427C571.873 734.763 571.776 749.098 572.343 763.408C574.327 813.4 617.316 856.225 667.827 855.958C722.584 855.669 777.343 855.765 832.102 855.861C844.764 855.883 857.426 855.906 870.088 855.923C889.503 855.95 908.294 852.993 925.083 842.883C955.601 824.506 973.385 797.176 974.819 761.64C975.798 737.392 975.598 713.1 975.397 688.804C975.279 674.432 975.16 660.058 975.286 645.692C975.507 620.378 969.83 597.023 953.622 577.207C940.942 561.705 926.563 547.661 905.835 544.385C869.674 586.941 760.32 606.479 760.32 606.479Z" fill="#FEFBF2"/>
<path d="M634.063 544.385C637.668 542.667 644.227 547.904 646.673 550.98C661.895 561.667 677.508 572.527 694.482 579.801C715.468 588.795 738.051 592.039 761.44 591.844C792.934 591.581 823.328 587.927 850.835 571.983C864.331 564.16 890.801 544.304 890.801 544.304L905.835 544.385C870.896 587.638 795.681 606.479 760.32 606.479C730.888 606.479 657.825 597.029 634.063 544.385Z" fill="#EFCBCF"/>
<path d="M700.921 1069.85C705.918 1057.11 716.163 1049.1 727.812 1043.1C730.729 1041.59 733.733 1040.26 737.804 1038.27C745.617 1036.43 752.711 1035.21 759.417 1033.93C775.419 1037.92 782.656 1050.37 785.748 1064.49C789 1079.34 788.908 1094.69 789.109 1110.49C785.121 1110.69 782.078 1110.12 779.256 1110.4C771.339 1111.19 763.424 1112.18 755.587 1113.54C733.5 1117.38 718.147 1106.55 706.516 1089.81C702.76 1084.41 702.605 1076.69 700.921 1069.85Z" fill="#6A4C50"/>
<path d="M788.617 1121.22C786.907 1127.71 783.617 1134.5 780.607 1140.47C774.696 1146.88 769.24 1155.8 757.616 1154.44C753.877 1152.92 751.715 1150.29 748.476 1149.25C727.382 1142.46 710.549 1130.66 700.583 1110.16C694.123 1096.87 693.899 1083.63 700.921 1069.85C703.084 1076.22 702.76 1084.41 706.516 1089.81C718.147 1106.55 733.5 1117.38 755.587 1113.54C763.424 1112.18 771.339 1111.19 779.256 1110.4C782.078 1110.12 785.576 1110.12 789.109 1110.49C789.397 1113.69 788.944 1117.39 788.617 1121.22Z" fill="#542F3F"/>
<path d="M1009.59 377.003C1009.63 399.708 1013.19 446.214 1006.89 450.714C1004.51 449.837 1001.93 449 999.678 447.875C990.977 443.532 981.908 438.506 973.027 434.582C967.375 432.084 965.838 428.213 965.874 422.615C965.983 405.601 965.738 387.86 966.393 369.722C971.588 368.862 972.682 372.234 977.197 372.504C986.366 373.052 995.537 364.872 1003.29 371.604C1004.86 372.964 1007.78 375.924 1009.59 377.003Z" fill="#FCA199"/>
<path d="M604.634 360.805C609.37 378.9 614.624 396.542 619.03 414.717C620.589 421.151 612.082 436.391 606.431 439.915C602.678 442.255 599.97 444.283 596.532 447.114C591.295 451.426 586.919 451.449 584.931 444.583C578.9 423.75 572.41 402.71 566.537 381.832C565.735 378.982 564.973 375.006 565.035 371.522C569.915 378.367 575.321 376.399 580.461 373.174C587.999 368.445 591.872 355.488 604.634 360.805Z" fill="#FCA199"/>
<path d="M646.029 1303.91C647.988 1293.32 661.066 1285.93 675.049 1281.81C700.633 1274.28 726.858 1279.59 752.356 1275.34C784.618 1260.71 811.665 1244.75 849.048 1248.41C859.614 1249.44 870.523 1252.23 881.802 1254.35C879.554 1257.97 877.565 1264.08 872.8 1264.31C839.292 1257.49 809.476 1259.85 781.01 1281.41C777.017 1284.43 772.21 1287.03 770.211 1291.31C766.607 1299.01 760.184 1300.08 754.013 1297.61C726.154 1286.45 697.634 1285.4 669.343 1293.12C661.405 1295.28 654.201 1300.15 646.029 1303.91Z" fill="#C9787A"/>
<path d="M759.417 1033.93C752.733 1035.87 745.21 1036.98 737.817 1038.35C739.221 1027.73 748.06 1021.41 756.021 1015.94C775.384 1002.64 797.82 996.57 820.548 993.319C844.401 989.908 868.633 988.063 892.725 987.794C907.705 987.627 924.517 991.438 939.396 994.257C942.012 995.305 943.955 999.677 946.595 1002.36C942.542 1003.97 937.086 1007.15 933.568 1006.36C886.82 995.916 840.99 1002.48 795.411 1013.15C784.547 1015.7 775.955 1021.93 765.711 1026.73C763.499 1027.77 761.059 1031.07 759.417 1033.93Z" fill="#EA9F8F"/>
<path d="M1009.59 377.003C1007.73 376.755 1004.86 372.964 1003.29 371.604C995.537 364.872 986.366 373.052 977.197 372.504C972.682 372.234 971.55 369.706 966.393 369.722C965.2 360.902 964.468 350.916 964.593 340.925C979.76 329.727 987.905 329.335 1005.99 337.407C1007.09 349.937 1008.55 363.643 1009.59 377.003Z" fill="#F68A8A"/>
<path d="M604.634 360.805C591.849 356.247 587.999 368.445 580.461 373.174C575.321 376.399 569.855 379.085 565.035 371.522C563.191 361.068 561.979 350.291 561.436 339.126C575.5 326.36 585.891 333.116 601.034 337.407C602.267 344.716 603.423 352.737 604.634 360.805Z" fill="#F68A8A"/>
<path fill-rule="evenodd" clip-rule="evenodd" d="M1117.58 701.051C1137.51 709.883 1152.68 728.866 1152.68 749.482C1156.28 774.761 1148.18 786.46 1143.68 789.978C1140.08 795.459 1106.12 811.426 1102.29 811.426C1096.88 812.557 1071.71 813.551 1056.39 815.176C1053.67 831.915 1079.79 856.653 1081.59 868.351C1085.7 875.773 1087.89 882.008 1087.89 885.368C1087.89 885.368 1155.62 1227.67 1075.29 1374.92C1027.74 1477.97 889.35 1456.68 797.324 1451.21C783.149 1449.32 764.404 1444.7 745.922 1439.22C711.605 1429.04 678.196 1415.91 676.624 1411.81C676.107 1402.01 677.571 1398.38 678.424 1393.81C678.72 1392.23 680.226 1388.5 680.226 1388.5C700.33 1391.88 719.341 1399.44 737.302 1408.76C747.878 1414.25 760.75 1416.06 772.198 1417.67C782.527 1419.13 792.838 1420.67 803.145 1422.29L803.149 1422.29C812.159 1423.71 821.775 1425.29 830.8 1426.6C850.365 1429.44 876.676 1430.36 896.411 1428.64C904.217 1427.96 912.071 1427.68 919.919 1427.48H919.922C928.975 1427.24 938.632 1427.18 947.606 1426.21C955.777 1425.33 962.899 1420.59 970.932 1417.96C986.193 1411.08 1013.85 1406.75 1029.6 1386.22C1039.14 1373.73 1051.96 1357.6 1054.27 1339C1056.3 1322.62 1055.49 1303.99 1057.42 1289.85C1057.99 1279.19 1057.91 1268.45 1057.79 1257.78V1257.77C1057.71 1250.89 1057.63 1244 1057.75 1237.12C1057.89 1228.85 1058.2 1220.58 1058.51 1212.32C1058.92 1201.33 1059.33 1190.34 1059.34 1179.35C1059.36 1166.99 1058.8 1154.64 1058.25 1142.29C1057.16 1118.23 1056.1 1099.38 1056.91 1075.73C1057.17 1067.97 1057.44 1060.2 1057.47 1052.44C1057.51 1044.12 1055.88 1035.8 1055.98 1027.49C1056.22 1007.79 1056.74 988.099 1057.26 968.408L1057.26 968.404C1057.41 962.988 1057.55 957.572 1057.69 952.155C1057.83 946.358 1058.04 940.56 1058.24 934.762L1058.25 934.748C1058.65 923.363 1059.06 911.977 1059.01 900.594C1058.93 880.517 1058.24 860.43 1057.2 840.38C1056.63 829.549 1040.97 818.428 1043.51 807.792C1043.06 800.314 1047.69 797.242 1053.81 796.593C1071.38 794.728 1088.44 792.382 1104.95 784.416C1124.55 774.958 1133.97 766.48 1134.68 745.146C1134.68 737.947 1124.39 710.702 1117.58 701.051Z" fill="#FDC5A6"/>
<path d="M898 1192.24C901.6 1191.34 968.193 1167.94 971.69 1166.12C974.492 1164.67 978.9 1161.43 983.491 1159.84C985.549 1161.24 987.78 1163.4 988.888 1164.42C987.523 1167.58 984.864 1169.6 982.594 1172.52C973.583 1186.75 922.816 1196.44 907 1201.23C903.718 1198.06 900.113 1195.1 898 1192.24Z" fill="#C9787A"/>
<path d="M1005.99 337.407C987.905 329.335 979.76 329.727 964.593 340.925C965.188 335.336 965.678 329.026 968.265 324.098C971.673 317.605 978.811 313.078 987.091 314.828C998.742 317.291 1003.62 324.098 1005.99 337.407Z" fill="#C9787A"/>
<path d="M601.034 337.407C585.891 333.116 575.5 326.36 561.436 339.126C561.153 335.978 561.259 329.524 562.341 326.609C563.78 322.732 572.24 312.21 581.225 314.285C592.727 315.439 598.741 327.221 601.034 337.407Z" fill="#C9787A"/>
<path d="M765.711 1189.62C764.679 1192.37 762.999 1194.65 760.315 1197.64C742.01 1197.26 724.53 1197.65 707.059 1196.74C707.026 1194.52 707.31 1189.78 707.218 1186.92C726.564 1186.82 745.489 1188.77 765.711 1189.62Z" fill="#A8A3A7"/>
<path d="M286.965 1366.82C290.784 1353.36 301.146 1345.11 312.907 1336.81C318.124 1334.08 322.337 1331.9 327.346 1329.66C351.068 1325.3 360.267 1329.58 368.67 1351.05C372.403 1360.58 374.603 1371.05 376.055 1381.22C365.968 1386.92 355.031 1392.62 345.807 1398.6C334.63 1405.84 311.604 1403.46 301.445 1394.9C292.529 1387.38 289.766 1377.02 286.965 1366.82Z" fill="#6A4C50"/>
<path fill-rule="evenodd" clip-rule="evenodd" d="M627.991 538.475C629.96 542.692 634.063 544.385 634.063 544.385C637.131 542.923 642.816 548.25 646.673 550.98C646.393 550.784 646.942 551.17 646.673 550.98C661.895 561.667 677.508 572.527 694.482 579.801C715.468 588.795 738.051 592.039 761.44 591.844C792.934 591.581 823.328 587.927 850.835 571.983C864.859 563.855 877.758 553.887 890.801 544.304L905.835 544.385C907.913 537.347 909.591 528.812 911.499 521.806C913.519 514.391 914.067 512.086 915.999 502.908C908.805 512.889 890.171 524.057 880.008 529.087C880.008 529.087 847.611 560.584 754.241 558.69C715.53 557.905 678.083 545.809 654.94 526.424C640.633 511.989 609.012 456.195 609.012 456.195C606.431 468.702 607.609 486.753 610.685 496.637C615.143 510.96 621.577 524.738 627.991 538.475Z" fill="#EA9F8F"/>
<path fill-rule="evenodd" clip-rule="evenodd" d="M1043.51 615.478C1046.49 647.875 1050.99 665.954 1050.99 665.954C1057.29 685.657 1071.37 682.711 1095.08 690.252C1086.3 664.726 1081.49 654.648 1065.64 632.582C1062.5 628.22 1066.68 608.376 1071.69 607.74C1084.25 606.142 1084.09 604.98 1096.8 606.57C1106.31 607.76 1114.88 605.579 1123.41 599.863C1131.81 596.498 1135.92 589.436 1140.01 582.385C1144.58 574.527 1151.61 569.901 1152.92 561.207L1152.93 561.187L1152.93 561.185C1154.13 553.221 1155.23 545.864 1158.97 540.704C1156.14 532.217 1142.88 517.29 1133.78 513.789C1134.39 520.856 1134.58 527.926 1135.37 535.011C1136.05 541.159 1136.73 547.391 1136.65 553.529C1136.43 569.944 1118.03 580.116 1104.95 587.663C1094.31 593.8 1079.44 589.267 1068.09 590.281C1041.09 590.281 1043.51 615.478 1043.51 615.478Z" fill="#FDC5A6"/>
<path fill-rule="evenodd" clip-rule="evenodd" d="M613.63 445.314C616.063 450.837 617.927 456.546 620.707 461.955C632.993 485.861 655.954 500.886 677.524 515.507C689.334 523.513 700.784 528.219 714.639 532.552C771.374 550.294 826.094 535.855 880.002 517.307C884.592 513.096 926.803 484.092 915.999 502.908C908.878 515.31 892.479 522.915 880.008 529.087C880.008 529.087 861.109 549.785 790.917 558.69C745.981 560.299 690.288 557.95 654.94 526.424C647.832 521.888 609.136 459.794 609.012 456.195C609.136 453.495 612.359 445.556 613.63 445.314Z" fill="#FDC5A6"/>
<path fill-rule="evenodd" clip-rule="evenodd" d="M1001.49 1137.34C984.487 1142 967.732 1147.59 950.672 1152.01C912.552 1161.85 866.484 1169.9 828.02 1158.17C824.398 1157.06 820.735 1156.07 817.065 1155.08C804.646 1151.72 791.753 1148.34 780.607 1140.47C779.228 1141.76 777.941 1143.2 776.645 1144.65C772.092 1149.73 766.785 1154.97 757.616 1154.44C759.965 1159.6 763.171 1164.67 767.09 1168.34C769.725 1170.81 773.123 1172.47 776.506 1174.14C777.737 1174.74 778.965 1175.34 780.154 1175.98C786.585 1179.44 793.04 1182.86 799.495 1186.28C802.154 1187.68 804.812 1189.09 807.469 1190.5C816.513 1190.63 827.837 1193.77 837.707 1194.04C858.978 1194.54 877.783 1196.45 898 1192.24C924.153 1186.78 948.75 1178.16 971.69 1166.12C975.609 1164.07 979.424 1161.72 983.491 1159.84C984.878 1161.32 987.276 1163.62 988.888 1164.42C995.337 1157.63 1000.31 1151.5 1000.59 1147.4C1000.88 1143.31 1001.54 1138.9 1001.49 1137.34Z" fill="#EA9F8F"/>
<path d="M286.965 1366.82C290.149 1376.46 292.529 1387.38 301.445 1394.9C311.604 1403.46 334.63 1405.84 345.807 1398.6C355.031 1392.62 372.461 1382.2 376.029 1381.22C376.96 1383.1 374.165 1405.58 373.984 1409.56C373.385 1422.68 365.242 1434.41 352.666 1438.81C324.736 1435.12 302.497 1422.88 289.065 1397.62C284.042 1388.18 283.289 1377.52 286.965 1366.82Z" fill="#542F3F"/>
<path d="M425.618 1082.15C426.411 1060.57 439.303 1052 459.097 1058.66C461.828 1059.57 465.61 1058.92 468.417 1057.79C481.902 1052.34 492.933 1054.85 503.142 1066.69C492.264 1077.63 495.873 1087.9 504.239 1099.02C509.602 1106.15 503.689 1113.18 499.682 1119.25C494.891 1126.5 487.723 1129.69 479.498 1126.1C473.122 1123.31 467.944 1123.42 461.717 1126.58C454.22 1130.38 447.596 1126.45 442.394 1121.09C432.125 1110.5 425.522 1098.11 425.618 1082.15Z" fill="#FEFBF2"/>
<path d="M478.801 1027.6C480.979 1037.87 478.573 1044.57 470.145 1049.43C467.303 1051.07 463.629 1051.27 460.336 1052.12C453.452 1039.33 463.74 1026.48 478.801 1027.6Z" fill="#FEFBF2"/>
<path d="M327.346 1329.66C329.989 1325.2 332.574 1319.44 337.017 1316.38C355.938 1303.32 377.551 1295.6 401.253 1291.23C405.489 1291.4 408.782 1291.68 412.051 1293.03C416.211 1295.69 420.626 1300.08 424.657 1302.02L448.953 1313.8L478.652 1339.82C478.652 1339.82 494.15 1360.89 492.187 1373.2C489.804 1384.79 446.99 1387.24 439.336 1387.98C422.455 1389.61 405.709 1384.9 388.969 1383.61C385.769 1383.37 377.5 1384.32 376.055 1381.22C373.73 1370.62 372.403 1360.58 368.67 1351.05C360.267 1329.58 351.068 1325.3 327.346 1329.66Z" fill="#FFD8AF"/>
<path fill-rule="evenodd" clip-rule="evenodd" d="M375.155 1395.61C373.857 1395.68 375.74 1387.7 375.814 1386.82C375.912 1385.63 376.029 1381.22 376.029 1381.22C378.76 1382.2 384.71 1383.29 388.967 1383.61C405.707 1384.9 422.456 1389.61 439.336 1387.98C446.554 1387.28 490.242 1382.66 492.187 1373.2C494.15 1360.89 478.652 1339.82 478.652 1339.82C478.652 1339.82 504.747 1364.2 506.549 1375.82C507.943 1379.37 509.247 1383.1 509.403 1386.31C512.593 1395.47 508.341 1401.78 497.959 1402.38C487.296 1403 477.351 1406.29 466.774 1406.92C448.785 1408 430.695 1408.14 412.665 1408.19C403.527 1408.21 394.525 1406.74 385.391 1406.74C378.613 1406.73 376.061 1400.76 375.155 1395.61Z" fill="#FDC5A6"/>
<path d="M421.043 1292.6C432.326 1298.01 439.981 1305.13 448.953 1313.8C425.555 1308.41 431.959 1305.56 424.657 1302.02C420.626 1300.08 415.457 1295.77 412.051 1293.03C415.163 1292.28 418.517 1292.63 421.043 1292.6Z" fill="#FDC5A6"/>
<path fill-rule="evenodd" clip-rule="evenodd" d="M1124.14 1024.79L1124.14 1024.71V1024.7C1125.68 1001.33 1124.52 964.627 1123.46 938.763V938.759C1123.11 930.236 1122.76 921.714 1122.73 913.189C1122.7 904.704 1122.91 896.216 1123.11 887.729C1123.4 875.928 1123.68 864.131 1123.34 852.349C1123.12 844.753 1124.2 840.439 1131.34 836.772C1167.11 818.407 1182.1 773.344 1165.71 736.702C1157.96 719.372 1145.46 706.612 1130.15 696.271C1124.31 692.323 1121.79 687.807 1122.21 680.621C1122.82 670.18 1122.84 659.641 1122.14 649.21C1121.65 641.92 1124.11 638.001 1130.6 634.638C1164.71 616.97 1178.43 572.199 1158.97 540.704C1151.78 545.285 1153.85 555.305 1152.96 561.226L1152.96 561.228L1152.96 561.23L1152.96 561.232L1152.96 561.234L1152.93 561.185C1149.98 570.483 1144.54 574.684 1140.05 582.413C1135.95 589.463 1128.57 597 1123.44 599.89C1113.08 602.879 1107.54 607.936 1096.83 606.597C1075.78 603.964 1051.89 604.679 1065.64 632.582C1081.45 654.596 1085.43 665.18 1095.08 690.252L1117.58 701.051C1117.58 701.051 1152.67 720.741 1152.68 749.482C1150.81 770.441 1149.08 782.86 1143.68 789.978C1138.28 795.459 1111.28 808.958 1102.29 811.426C1095.08 812.557 1069.71 813.763 1056.38 815.175C1053.59 832.34 1074.02 854.703 1081.59 868.351C1081.59 868.351 1087.36 879.333 1087.89 885.368C1088.88 907.107 1086.62 930.184 1086.39 951.986C1086.21 968.447 1084.67 984.862 1084.9 1001.33C1085.06 1012.48 1085.98 1023.57 1086.34 1034.71V1034.71C1086.83 1043.15 1087.32 1051.59 1087.59 1060.03C1088.11 1075.97 1086.75 1091.78 1087.63 1107.8C1088.11 1116.54 1088.59 1125.27 1088.72 1134.02C1089.42 1179.86 1098.53 1237.68 1087.06 1282.37C1084.29 1298.51 1088.53 1321.65 1086.65 1338.72C1083.46 1367.56 1067.42 1393.47 1044.88 1411.33C1029.55 1423.47 1013.83 1434.93 993.682 1438.82C987.191 1440.07 980.84 1442.12 974.496 1444.17C967.134 1446.55 959.78 1448.92 952.228 1450.04C941.733 1451.6 931.042 1451.79 920.343 1451.98H920.341C914.851 1452.07 909.36 1452.17 903.893 1452.45C898.644 1452.72 893.395 1453.16 888.147 1453.59C878.871 1454.37 869.599 1455.14 860.338 1454.99C839.304 1454.65 797.324 1451.21 797.324 1451.21C779.456 1448.74 763.503 1443.58 745.922 1439.22C736.225 1436.81 725.451 1432.64 716.22 1428.91C713.377 1427.76 703.888 1424.33 700.921 1423.51C693.071 1421.34 693.466 1417.84 685.759 1415.5C682.675 1414.56 679.491 1413.36 676.624 1411.81C669.489 1423.69 665.246 1439.82 651.365 1445.5C650.139 1446.11 647.867 1447.02 646.068 1447.84C620.503 1437.95 602.579 1415.98 586.633 1393.81C586.633 1393.81 582.604 1373.83 587.973 1360.97C592.129 1354.15 600.132 1339.82 600.132 1339.82C600.132 1339.82 620.119 1331.01 629.831 1325.5C635.739 1317.63 641.666 1310.65 646.927 1303.82C649.506 1292.98 661.253 1286.19 675.184 1282.04C689.796 1277.69 704.617 1277.59 719.392 1277.49C730.391 1277.42 741.516 1277.17 752.356 1275.34C757.264 1274.51 761.723 1272.23 766.355 1269.76C790.966 1256.65 820.921 1245.62 849.048 1248.41C856.228 1249.12 863.329 1250.63 870.685 1252.2L870.69 1252.2C874.116 1252.93 878.231 1253.67 881.802 1254.35C879.712 1254.37 873.81 1262.27 872.8 1264.31C872.761 1265.55 910.522 1279.04 913.445 1280.48C923.507 1285.51 933.65 1290.32 943.864 1295.04C947.391 1296.66 951.864 1295.07 955.594 1295.04C955.594 1283.13 937.233 1276.68 925.894 1270.63C915.032 1264.84 905.576 1260.46 894.398 1255.31C899.15 1251.19 907.606 1242.79 907.606 1242.79C927.168 1226.32 947.31 1209.59 966.815 1192.04C973.015 1186.46 977.475 1179.06 982.594 1172.52C957.729 1183.15 932.64 1192.59 907 1201.23C904.836 1212.42 901.677 1223.3 889.543 1226.85C889.543 1226.85 869.334 1231.42 859.128 1233.57C853.589 1234.74 848.056 1235.95 842.522 1237.16C826.512 1240.67 810.498 1244.18 794.33 1246.67C785.365 1248.05 776.497 1250.14 767.602 1252.24L767.595 1252.25C747.992 1256.88 728.228 1262.04 707.059 1259.16C698.5 1258.93 690.345 1260.67 681.886 1260.7C617.74 1260.91 553.595 1260.78 489.449 1260.84C489.256 1270.49 488.903 1279.96 488.903 1289.62C453.027 1289.62 454.186 1289.64 453.771 1289.62C443.234 1289.8 431.995 1291.28 421.043 1292.6C431.265 1299.79 440.054 1304.4 448.953 1313.8L478.652 1339.82C478.652 1339.82 504.747 1366 506.549 1375.82C507.882 1379.21 508.388 1382.82 509.403 1386.31C511.946 1395.7 508.341 1401.78 497.959 1402.38C487.387 1402.99 477.262 1406.29 466.774 1406.92C439.466 1408.56 412.59 1406.74 385.391 1406.74C377.991 1406.73 378.981 1394.6 375.155 1395.61C374.048 1400.37 374.215 1404.49 373.984 1409.56C373.385 1422.68 365.139 1433.78 352.658 1438.81C356.205 1442.21 359.248 1447.51 364.874 1447.84C378.565 1448.65 387.543 1455.28 393.699 1466.85C412.003 1501.23 478.177 1499.93 506.134 1483.68C516.538 1477.63 525.517 1469.62 535.163 1462.51C539.607 1468.72 543.504 1475.33 548.581 1481.07C575.01 1510.94 608.247 1520.6 646.564 1511.63C659.22 1508.67 672.186 1504.55 681.162 1493.73L681.164 1493.73L681.336 1493.61C684.982 1491.09 689.631 1487.87 692.663 1484.93L692.851 1485.04C695.316 1485.94 697.719 1486.89 700.084 1487.82L700.092 1487.82L700.104 1487.82L700.106 1487.83L700.109 1487.83C707.204 1490.62 713.947 1493.27 720.918 1494.19C734.057 1495.91 745.23 1498.63 748.711 1513.51C753.451 1533.79 789.719 1546.98 807.024 1549.5C835.148 1553.59 860.312 1547.48 881.278 1527.61C886.629 1522.54 891.18 1516.62 898.918 1507.93C906.43 1523.76 918.52 1535.36 935.606 1540.63C957.252 1547.3 979.512 1548.03 1001.17 1538.07C1024.56 1527.32 1041.21 1511.54 1045.17 1484.85C1045.48 1482.72 1047.76 1479.99 1049.79 1479.16C1067.04 1472.13 1081.32 1461.03 1093.53 1447.27C1108.06 1430.91 1117.68 1411.89 1122.53 1390.51C1139.85 1391.1 1158.49 1401.31 1171.86 1382.54C1175.24 1377.8 1177.88 1376.91 1182.74 1379.82C1199.61 1389.92 1217.33 1390.99 1236.04 1385.25C1256.04 1379.13 1273.03 1357.88 1271.67 1337.04C1271.06 1327.7 1266.57 1319.16 1263.88 1310.32C1263.92 1310.29 1263.96 1310.25 1264.01 1310.2C1278.64 1297.57 1291.78 1281.92 1297.28 1263.05C1305.19 1241.22 1310.9 1220.25 1305.7 1196.76L1289.53 1245.41L1270.07 1276.35L1223.66 1307.69L1182.24 1305.87L1160.78 1295.72L1151.78 1286.73L1143.68 1226.43L1141.92 1170.67C1137.03 1174.21 1132.53 1177.85 1128.27 1181.32C1128.23 1181.23 1128.19 1181.16 1128.14 1181.11C1127.48 1129.24 1124.14 1077.33 1124.14 1024.79Z" fill="#EA9F8F"/>
<path d="M489.449 1260.84C489.449 1269.94 488.903 1280.93 488.903 1289.62C478.106 1289.62 466.342 1289.6 453.771 1289.62C442.463 1290.46 431.995 1291.28 421.043 1292.6C418.033 1293.13 415.508 1293.16 412.228 1293.28C408.372 1292.65 405.059 1291.95 401.253 1291.23C403.2 1283.87 407.273 1279.05 414.003 1276.26C432.477 1268.6 460.646 1271.43 469.645 1269.63C472.479 1269.01 475.951 1267.29 478.644 1266.03C477.75 1263.41 472.239 1262.73 470.224 1260.72C473.823 1260.72 487.649 1260.84 489.449 1260.84Z" fill="#C9787A"/>
<path fill-rule="evenodd" clip-rule="evenodd" d="M532.641 810.758C539.522 806.569 534.983 802.846 530.839 800.777C508.082 789.411 474.953 779.325 473.245 749.482C472.761 741.029 472.603 732.392 471.445 724.285C467.225 732.921 462.541 742.085 458.847 750.382C460.265 751.84 462.187 752.492 463.182 754.54C467.684 763.803 476.268 783.211 476.268 783.211C476.256 783.217 479.944 787.485 479.938 788.203C483.117 794.524 485.424 795.174 490.481 798.861C495.74 802.696 508.406 807.293 520.042 809.858C523.343 805.795 528.655 808.604 532.641 810.758Z" fill="#FDC5A6"/>
<path fill-rule="evenodd" clip-rule="evenodd" d="M1143.68 1226.43C1147.2 1231.04 1151.93 1234.84 1154.12 1240.36C1159.74 1254.53 1167.23 1268.43 1179.25 1276.54C1188.56 1282.82 1200.72 1283.45 1211.71 1282.57C1221.85 1281.31 1234.01 1278.38 1244.52 1272.14L1245.16 1271.76C1256.66 1264.93 1265.58 1254.52 1270.36 1241.26C1271.6 1237.84 1274.04 1234.66 1276.52 1231.91C1285.33 1222.15 1286.79 1209.8 1287.76 1197.77C1288.19 1192.35 1287.57 1186.85 1286.94 1181.34C1286.52 1177.63 1286.1 1173.91 1286 1170.21C1285.94 1168.07 1288.62 1165.86 1290.68 1163.68C1294.36 1168.67 1297.67 1174.55 1300.27 1180.54C1300.24 1180.59 1300.21 1180.64 1300.18 1180.69C1302.35 1185.77 1303.99 1190.62 1305.66 1196.74C1303.86 1214.81 1296.66 1231.01 1289.53 1245.41C1285.86 1255.31 1275.13 1266.75 1270.07 1276.35C1267.87 1281.33 1235.44 1305.62 1223.66 1307.69C1209.83 1310.12 1196.65 1309.15 1182.24 1305.87C1172.34 1303.61 1166.43 1301.37 1160.78 1295.72C1158.02 1292.97 1155 1289.05 1151.78 1286.73C1137.69 1276.54 1132.92 1238.78 1143.68 1226.43Z" fill="#FDC5A6"/>
<path d="M939.071 645.588C943.899 651.89 949.438 657.458 952.125 664.168C954.618 670.393 955.512 678.071 954.445 684.679C953.372 691.326 947.86 696.403 940.113 695.65C932.751 694.934 928.598 690.127 927.19 682.853C924.826 670.635 915.896 664.726 905.04 662.041C894.655 659.474 884.838 662.889 878.849 671.669C875.01 677.298 874.009 684.863 871.761 692.231C867.352 698.434 862.581 703.924 854.569 700.356C846.727 696.863 844.69 689.905 845.02 681.769C845.942 659.035 866.364 637.077 890.267 632.532C908.592 629.047 924.435 633.602 939.071 645.588Z" fill="#542F3F"/>
<path d="M709.907 715.286C697.232 710.279 690.949 701.218 692.491 691.172C693.126 687.035 697.057 682.506 700.742 679.989C704.388 677.499 707.982 679.036 710.192 684.348C715.352 696.752 725.268 698.72 732.745 689.365C735.847 685.485 736.023 681.696 736.023 681.696C728.222 678.463 719.868 668.79 721.931 661.378C724.028 653.842 731.232 653.362 738.322 653.894C743.876 654.311 749.507 653.804 755.098 653.581C762.117 653.3 769.344 652.656 771.85 661.551C773.866 668.706 769.919 675.897 762.159 679.678C760.591 680.442 758.889 680.931 756.85 681.696C759.468 689.269 763.868 694.464 771.779 693.552C775.356 693.14 780.191 690.254 781.604 687.179C784.756 680.323 788.237 675.521 796.382 678.022C803.518 680.212 807.199 689.171 803.516 696.71C800.816 702.769 795.416 706.368 792.717 708.168L781.604 711.369C780.034 711.369 755.608 715.386 746.682 701.405C736.667 713.265 723.162 715.248 709.907 715.286Z" fill="#542F3F"/>
<path d="M793.611 731.484C798.106 754.371 790.955 779.789 772.985 791.772C756.753 802.596 729.63 800.939 718.919 774.68C719.824 764.862 731.249 740.354 745.017 735.084C755.638 734.455 765.9 734.163 775.773 733.43C781.596 732.997 787.802 732.096 793.611 731.484Z" fill="#FCA199"/>
<path d="M595.84 671.624C588.01 672.036 582.384 668.532 583.553 658.512C586.884 635.937 613.026 628.137 630.853 631.479C653.998 635.818 670.395 649.789 676.82 673.342C678.037 677.803 678.429 678.788 678.429 687.179C678.429 695.57 673.029 702.769 663.13 702.769C653.231 702.769 648.644 688.13 647.255 681.357C646.016 678.103 644.949 676.082 643.881 674.061C637.252 663.2 625.132 658.429 612.953 662.766C607.899 665.735 601.731 671.315 595.84 671.624Z" fill="#542F3F"/>
<path d="M906.105 717.086C922.746 717.086 934.002 732.234 934.002 744.643C934.002 763.467 919.333 774.68 906.105 774.68C892.72 774.68 875.508 762.239 875.508 744.643C875.508 723.844 891.211 717.086 906.105 717.086Z" fill="#FCA199"/>
<path d="M620.835 776.561C601.037 776.561 590.238 761.608 590.238 747.764C590.238 729.685 606.436 718.967 620.835 718.967C635.233 718.967 648.732 731.63 648.732 747.764C648.732 761.608 640.633 776.561 620.835 776.561Z" fill="#FCA199"/>
<path d="M745.017 735.084C757.312 722.645 775.29 721.023 792.717 718.967C792.717 718.967 793.442 727.024 793.611 731.484C787.74 732.887 781.596 732.997 775.773 733.43C765.9 734.163 755.638 734.455 745.017 735.084Z" fill="#F68A8A"/>
<path fill-rule="evenodd" clip-rule="evenodd" d="M745.017 735.084C760.32 721.667 776.485 721.455 792.717 718.967C792.719 717.634 792.722 711.374 792.717 708.168L781.604 711.369C780.034 711.369 755.608 715.386 746.682 701.405C737.15 712.693 723.728 714.387 709.907 715.286C710.496 729.188 710.98 741.804 711.72 754.882C711.72 756.682 717.798 772.332 718.919 774.68C721.849 759.919 733.582 739.461 745.017 735.084Z" fill="#C9787A"/>
<path fill-rule="evenodd" clip-rule="evenodd" d="M653.228 934.945C646.342 940.489 639.352 945.063 633.43 951.061C648.565 1034.36 658.566 1120.41 681.123 1202.13C680.396 1225.25 672.919 1233.76 650.473 1233.85C649.247 1233.85 648.021 1233.85 646.795 1233.84C645.921 1233.84 645.048 1233.84 644.174 1233.84L567.388 1233.85C520.293 1233.86 473.197 1233.87 426.102 1233.88C417.1 1233.88 408.098 1233.87 399.097 1233.87C376.818 1233.85 354.539 1233.84 332.261 1233.93C324.906 1233.96 318.016 1233.73 312.317 1227.92C310.55 1226.12 307.202 1226.42 305.037 1226.7C312.588 1248.59 327.332 1259.91 349.669 1260.11C369.247 1260.29 388.825 1260.39 408.403 1260.5C416.843 1260.54 425.284 1260.58 433.725 1260.64C433.725 1260.64 450.935 1260.76 470.224 1260.72C540.728 1261.88 611.376 1260.94 681.886 1260.7C685.703 1260.69 707.206 1258.8 707.059 1259.16C728.228 1262.04 747.957 1257.38 767.56 1252.75C776.457 1250.65 785.328 1248.55 794.297 1247.17C810.465 1244.68 826.512 1240.67 842.522 1237.16C848.056 1235.95 853.589 1234.74 859.128 1233.57C859.128 1233.57 881.906 1229.09 889.543 1226.85C901.677 1223.3 906.004 1212.74 907 1201.23C904.402 1198.04 900.944 1195.07 898 1192.24C867.71 1191.77 837.176 1190.82 806.813 1190.54C792.88 1190.35 778.991 1189.86 765.711 1189.62C763.861 1192.07 762.156 1194.5 760.315 1197.64C764.541 1199.49 768.959 1200.82 773.211 1202.59C787.614 1203.81 804.764 1204.96 820.019 1205.63C820.025 1205.66 820.032 1205.69 820.038 1205.72L833.207 1208.43C830.151 1209.18 827.76 1210.24 825.12 1210.91C819.765 1212.26 815.087 1213.44 810.366 1214.4C806.256 1215.24 802.143 1216.07 798.023 1216.89C786.857 1219.13 775.261 1221.09 763.914 1223.73C763.914 1223.73 768.851 1230.86 772.014 1235.43C772.014 1235.43 767.256 1244.41 762.12 1245.41C750.421 1241.81 750.416 1241.73 751.316 1227.33C740.286 1226.86 727.016 1227.15 714.42 1227.33C711.72 1224.63 709.92 1220.13 709.02 1217.43C708.006 1210.09 707.68 1204.39 707.059 1196.74C707.034 1193.71 707.718 1190.38 707.218 1186.92C703.7 1171.4 699.394 1157.9 696.53 1143.59C691.755 1119.72 687.007 1095.85 682.258 1071.98C674.734 1034.15 667.21 996.328 659.58 958.525C657.949 950.441 656.152 942.705 653.228 934.945Z" fill="#8B7887"/>
<path d="M833.207 1208.43C826.908 1212.03 817.759 1213.29 810.71 1214.73C795.463 1217.85 780.154 1220.01 763.914 1223.73C759.262 1225.2 755.004 1226.61 751.316 1227.33C739.247 1227.57 727.163 1227.41 714.42 1227.33C711.72 1224.63 709.92 1221.03 709.02 1217.43C730.467 1212.07 752.069 1207.31 773.211 1202.59C791.21 1203.34 816.471 1200.07 833.207 1208.43Z" fill="#BEB2BD"/>
<path d="M773.211 1202.59C752.224 1207.97 730.851 1212.57 709.02 1217.43C707.702 1210.74 707.68 1204.39 707.059 1196.74C724.538 1196.84 742.001 1196.58 760.315 1197.64C765.246 1198.9 768.967 1200.82 773.211 1202.59Z" fill="#542F3F"/>
<path fill-rule="evenodd" clip-rule="evenodd" d="M1001.49 1137.34C1001.08 1139.39 1000.59 1147.4 1000.59 1147.4C1005.99 1146.5 1007.66 1140.49 1007.79 1139.3C1007.66 1140.27 1007.88 1138.43 1007.79 1139.3C1009.59 1136.6 1009.51 1126.39 1007.33 1124.18C1003.62 1120.42 996.341 1118.08 990.925 1118.61C983.252 1119.36 975.537 1126.11 968.46 1125.25C956.878 1123.83 946.519 1127.14 936.286 1130.5C932.365 1131.78 928.459 1133.14 924.515 1134.14C897.233 1141.06 870.202 1137.31 843.345 1135.4C830.579 1134.49 818.016 1130.68 805.451 1126.94C799.835 1125.27 794.251 1122.64 788.617 1121.22C786.193 1127.74 782.865 1133.9 780.607 1140.47C791.753 1148.34 804.646 1151.72 817.065 1155.08C820.735 1156.07 824.398 1157.06 828.02 1158.17C866.484 1169.9 912.552 1161.85 950.672 1152.01C967.349 1147.7 992.496 1140.12 1001.49 1137.34Z" fill="#FDC5A6"/>
<path d="M751.316 1227.33C751.316 1227.33 759.52 1224.56 763.914 1223.73C772.014 1223.73 772.012 1232.38 772.014 1235.43C772.019 1244.51 764.925 1244.86 762.12 1245.41C750.421 1246.31 746.623 1234.62 751.316 1227.33Z" fill="#542F3F"/>
<path d="M1141.88 1170.64C1153.84 1161.03 1177.36 1167.95 1186.1 1176.13C1189.9 1179.69 1192.84 1183.55 1197.68 1188.64C1205.92 1161.85 1222.4 1146 1249.78 1143.84C1266.98 1142.49 1280.72 1149.62 1290.68 1163.68C1288.8 1166.42 1285.94 1168.07 1286 1170.21C1286.25 1179.41 1288.49 1188.7 1287.76 1197.77C1286.79 1209.8 1285.33 1222.15 1276.52 1231.91C1274.04 1234.66 1271.6 1237.84 1270.36 1241.26C1265.58 1254.52 1256.66 1264.93 1245.16 1271.76C1227.03 1282.52 1198.49 1289.52 1179.25 1276.54C1167.23 1268.43 1159.74 1254.53 1154.12 1240.36C1152.08 1235.21 1147.16 1231.8 1143.68 1226.43C1143.15 1207.56 1142.42 1188.71 1141.88 1170.64Z" fill="#FFD8AF"/>
<path d="M600.132 1339.82C606.436 1335.4 620.351 1330.42 629.831 1325.5C638.283 1325.09 645.887 1324.57 653.369 1326.63C665.84 1330.05 673.104 1340.3 675.792 1352.42C678.284 1363.65 678.922 1376.15 680.226 1388.5C680.226 1388.5 679.536 1392.22 678.424 1393.81C673.062 1394.92 668.081 1395.02 664.003 1397.01C658.887 1399.52 654.729 1405.06 649.533 1406.06C641.349 1407.65 632.545 1407.38 624.18 1406.4C606.225 1404.29 590.278 1386.03 589.634 1368.21C589.553 1365.99 588.574 1363.83 587.973 1360.97C592.426 1353.66 594.738 1344.4 600.132 1339.82Z" fill="#6A4C50"/>
<path d="M676.624 1411.81C673.024 1429.57 659.365 1445.7 646.068 1447.84C642.214 1446.74 639.18 1445.81 635.019 1443.99C612.463 1432.36 596.361 1417.12 586.633 1393.81C583.835 1382.55 583.477 1371.03 587.973 1360.97C587.973 1360.97 599.541 1403.51 624.18 1406.4C632.545 1407.38 641.349 1407.65 649.533 1406.06C654.729 1405.06 658.887 1399.52 664.003 1397.01C668.081 1395.02 673.457 1394.44 678.424 1393.81C679.983 1398.96 677.644 1406.78 676.624 1411.81Z" fill="#542F3F"/>
</svg>
